0
SECTION
2
HEADER
9
$INSUNITS
70
4
9
$ACADVER
1
AC1014
9
$HANDSEED
5
FFFF
0
ENDSEC
0
SECTION
2
TABLES
0
TABLE
2
VPORT
5
8
100
AcDbSymbolTable
0
ENDTAB
0
TABLE
2
LTYPE
5
5
100
AcDbSymbolTable
0
LTYPE
5
14
100
AcDbSymbolTableRecord
100
AcDbLinetypeTableRecord
2
BYBLOCK
70
0
0
LTYPE
5
15
100
AcDbSymbolTableRecord
100
AcDbLinetypeTableRecord
2
BYLAYER
70
0
0
ENDTAB
0
TABLE
2
LAYER
5
2
100
AcDbSymbolTable
70
2
0
LAYER
5
50
100
AcDbSymbolTableRecord
100
AcDbLayerTableRecord
2
0
70
0
6
CONTINUOUS
0
ENDTAB
0
TABLE
2
STYLE
5
3
100
AcDbSymbolTable
70
1
0
STYLE
5
11
100
AcDbSymbolTableRecord
100
AcDbTextStyleTableRecord
2
STANDARD
70
0
0
ENDTAB
0
TABLE
2
VIEW
5
6
100
AcDbSymbolTable
70
0
0
ENDTAB
0
TABLE
2
UCS
5
7
100
AcDbSymbolTable
70
0
0
ENDTAB
0
TABLE
2
APPID
5
9
100
AcDbSymbolTable
70
2
0
APPID
5
12
100
AcDbSymbolTableRecord
100
AcDbRegAppTableRecord
2
ACAD
70
0
0
ENDTAB
0
TABLE
2
DIMSTYLE
5
A
100
AcDbSymbolTable
70
1
0
ENDTAB
0
TABLE
2
BLOCK_RECORD
5
1
100
AcDbSymbolTable
70
1
0
BLOCK_RECORD
5
1F
100
AcDbSymbolTableRecord
100
AcDbBlockTableRecord
2
*MODEL_SPACE
0
BLOCK_RECORD
5
1B
100
AcDbSymbolTableRecord
100
AcDbBlockTableRecord
2
*PAPER_SPACE
0
ENDTAB
0
ENDSEC
0
SECTION
2
BLOCKS
0
BLOCK
5
20
100
AcDbEntity
100
AcDbBlockBegin
2
*MODEL_SPACE
0
ENDBLK
5
21
100
AcDbEntity
100
AcDbBlockEnd
0
BLOCK
5
1C
100
AcDbEntity
100
AcDbBlockBegin
2
*PAPER_SPACE
0
ENDBLK
5
1D
100
AcDbEntity
100
AcDbBlockEnd
0
ENDSEC
0
SECTION
2
ENTITIES
0
LWPOLYLINE
5
100
100
AcDbEntity
8
0
100
AcDbPolyline
90
16
70
1
43
0.0
10
42.5
20
48
10
42.5
20
47.300000000000011
42
0.41421356237308982
10
44.5
20
45.300000000000011
10
62
20
45.300000000000004
42
-0.41421356237309509
10
65
20
42.300000000000004
10
65
20
41.150000000000006
42
0.41421356237309243
10
67
20
39.149999999999999
10
67.363907049409562
20
39.149999999999999
42
0.41421356237309243
10
69.363907049409562
20
41.150000000000006
10
69.363907049409562
20
54.149999999999999
42
0.41421356237308982
10
67.363907049409562
20
56.150000000000006
10
67
20
56.150000000000006
42
0.41421356237308982
10
65
20
54.149999999999999
10
65
20
53
42
-0.41421356237309509
10
62
20
50
10
44.5
20
50
42
0.41421356237308982
0
LINE
5
101
100
AcDbEntity
8
0
100
AcDbLine
10
42.5
20
72.300000000000011
30
0
11
42.5
21
73
31
0
0
ARC
5
102
100
AcDbEntity
8
0
100
AcDbCircle
10
67.000000000000014
20
29.149999999999988
30
0
40
2.0000000000000151
100
AcDbArc
50
90.000000000000398
51
180
0
LWPOLYLINE
5
103
100
AcDbEntity
8
0
100
AcDbPolyline
90
8
70
1
43
0.0
10
22.499999999999996
20
47.300000000000026
42
-0.41421356237309176
10
20.5
20
45.300000000000011
10
2.9999999999999982
20
45.300000000000004
42
0.41421356237309481
10
0
20
42.300000000000004
10
0
20
53
42
0.41421356237309509
10
3.0000000000000004
20
50
10
20.5
20
50
42
-0.41421356237309176
10
22.5
20
48
0
LWPOLYLINE
5
104
100
AcDbEntity
8
0
100
AcDbPolyline
90
8
70
1
43
0.0
10
2.2204460492503131e-15
20
67.300000000000011
42
-0.41421356237309481
10
2.9999999999999982
20
70.299999999999997
10
20.5
20
70.299999999999997
42
0.41421356237309243
10
22.5
20
72.300000000000011
10
22.5
20
73
42
0.41421356237309176
10
20.5
20
75
10
3.0000000000000004
20
75
42
-0.41421356237309509
10
0
20
78
0
CIRCLE
5
105
100
AcDbEntity
8
0
100
AcDbCircle
10
3.5000000000000004
20
91.799999999999997
30
0
40
1.375
0
LWPOLYLINE
5
106
100
AcDbEntity
8
0
100
AcDbPolyline
90
8
70
1
43
0.0
10
22.5
20
23
10
22.5
20
22.300000000000004
42
-0.4142135623730937
10
20.5
20
20.300000000000004
10
2.9999999999999982
20
20.300000000000004
42
0.41421356237309481
10
0
20
17.300000000000001
10
0
20
28.000000000000004
42
0.41421356237309548
10
3.0000000000000004
20
25
10
20.5
20
25
42
-0.4142135623730937
0
ARC
5
107
100
AcDbEntity
8
0
100
AcDbCircle
10
73.699999999999989
20
33.150000000000013
30
0
40
2.0000000000000107
100
AcDbArc
50
270.0000000000004
51
360
0
ARC
5
108
100
AcDbEntity
8
0
100
AcDbCircle
10
77.700000000000017
20
35.649999999999963
30
0
40
2.0000000000000151
100
AcDbArc
50
90.00000000000081
51
180
0
ARC
5
109
100
AcDbEntity
8
0
100
AcDbCircle
10
77.699999999999989
20
35.64999999999997
30
0
40
2.0000000000000107
100
AcDbArc
50
0
51
90
0
ARC
5
110
100
AcDbEntity
8
0
100
AcDbCircle
10
3.0000000000000004
20
3.0000000000000004
30
0
40
3.0000000000000004
100
AcDbArc
50
180
51
270
0
CIRCLE
5
111
100
AcDbEntity
8
0
100
AcDbCircle
10
3.5000000000000004
20
66.799999999999997
30
0
40
1.375
0
ARC
5
112
100
AcDbEntity
8
0
100
AcDbCircle
10
62
20
92.300000000000011
30
0
40
2.9999999999999982
100
AcDbArc
50
0
51
90
0
ARC
5
113
100
AcDbEntity
8
0
100
AcDbCircle
10
44.500000000000014
20
22.999999999999986
30
0
40
2.0000000000000107
100
AcDbArc
50
90.000000000000611
51
180
0
ARC
5
114
100
AcDbEntity
8
0
100
AcDbCircle
10
77.700000000000017
20
59.649999999999999
30
0
40
2.0000000000000195
100
AcDbArc
50
180
51
269.9999999999996
0
ARC
5
115
100
AcDbEntity
8
0
100
AcDbCircle
10
62
20
78
30
0
40
2.9999999999999982
100
AcDbArc
50
-90
51
0
0
ARC
5
116
100
AcDbEntity
8
0
100
AcDbCircle
10
62
20
67.300000000000011
30
0
40
2.9999999999999982
100
AcDbArc
50
0
51
90
0
LINE
5
117
100
AcDbEntity
8
0
100
AcDbLine
10
44.499999999999993
20
24.999999999999996
30
0
11
62
21
25
31
0
0
ARC
5
118
100
AcDbEntity
8
0
100
AcDbCircle
10
77.699999999999989
20
59.649999999999999
30
0
40
2.0000000000000195
100
AcDbArc
50
270.0000000000004
51
360
0
ARC
5
119
100
AcDbEntity
8
0
100
AcDbCircle
10
62
20
3.0000000000000004
30
0
40
3.0000000000000004
100
AcDbArc
50
-90
51
0
0
ARC
5
120
100
AcDbEntity
8
0
100
AcDbCircle
10
62
20
17.300000000000001
30
0
40
2.9999999999999982
100
AcDbArc
50
0
51
90
0
ARC
5
121
100
AcDbEntity
8
0
100
AcDbCircle
10
97
20
18.149999999999981
30
0
40
3.0000000000000004
100
AcDbArc
50
-90
51
0
0
ARC
5
122
100
AcDbEntity
8
0
100
AcDbCircle
10
82.700000000000017
20
77.149999999999977
30
0
40
3.000000000000016
100
AcDbArc
50
90
51
180
0
ARC
5
123
100
AcDbEntity
8
0
100
AcDbCircle
10
73.699999999999989
20
62.149999999999977
30
0
40
2.0000000000000195
100
AcDbArc
50
0
51
89.999999999999588
0
LINE
5
124
100
AcDbEntity
8
0
100
AcDbLine
10
73.700000000000003
20
31.150000000000002
30
0
11
67
21
31.150000000000002
31
0
0
ARC
5
125
100
AcDbEntity
8
0
100
AcDbCircle
10
44.500000000000021
20
72.999999999999986
30
0
40
2.0000000000000195
100
AcDbArc
50
90.000000000000611
51
180
0
LINE
5
126
100
AcDbEntity
8
0
100
AcDbLine
10
65
20
3.0000000000000004
30
0
11
65
21
17.300000000000001
31
0
0
LINE
5
127
100
AcDbEntity
8
0
100
AcDbLine
10
42.5
20
22.300000000000004
30
0
11
42.5
21
23
31
0
0
LINE
5
128
100
AcDbEntity
8
0
100
AcDbLine
10
44.5
20
70.300000000000011
30
0
11
62
21
70.299999999999997
31
0
0
CIRCLE
5
129
100
AcDbEntity
8
0
100
AcDbCircle
10
3.5000000000000004
20
41.799999999999997
30
0
40
1.375
0
CIRCLE
5
130
100
AcDbEntity
8
0
100
AcDbCircle
10
3.5000000000000004
20
16.800000000000001
30
0
40
1.375
0
LWPOLYLINE
5
131
100
AcDbEntity
8
0
100
AcDbPolyline
90
3
70
1
43
0.0
10
-6.6613381477509392e-15
20
92.300000000000011
42
-0.41421356237309481
10
2.9999999999999982
20
95.300000000000011
10
0
20
95.300000000000011
0
ARC
5
132
100
AcDbEntity
8
0
100
AcDbCircle
10
62
20
28
30
0
40
2.9999999999999982
100
AcDbArc
50
-90
51
0
0
LINE
5
133
100
AcDbEntity
8
0
100
AcDbLine
10
77.699999999999989
20
37.649999999999977
30
0
11
77.699999999999989
21
37.649999999999977
31
0
0
LINE
5
134
100
AcDbEntity
8
0
100
AcDbLine
10
79.700000000000003
20
18.149999999999981
30
0
11
79.700000000000003
21
35.649999999999977
31
0
0
LINE
5
135
100
AcDbEntity
8
0
100
AcDbLine
10
65
20
28
30
0
11
65
21
29.149999999999999
31
0
0
LINE
5
136
100
AcDbEntity
8
0
100
AcDbLine
10
44.5
20
75
30
0
11
62
21
75
31
0
0
CIRCLE
5
137
100
AcDbEntity
8
0
100
AcDbCircle
10
61.5
20
41.799999999999997
30
0
40
1.375
0
ARC
5
138
100
AcDbEntity
8
0
100
AcDbCircle
10
82.699999999999989
20
18.149999999999984
30
0
40
2.9999999999999982
100
AcDbArc
50
180
51
270
0
CIRCLE
5
139
100
AcDbEntity
8
0
100
AcDbCircle
10
83.200000000000003
20
18.649999999999981
30
0
40
1.375
0
CIRCLE
5
140
100
AcDbEntity
8
0
100
AcDbCircle
10
61.5
20
16.800000000000001
30
0
40
1.375
0
ARC
5
141
100
AcDbEntity
8
0
100
AcDbCircle
10
44.500000000000014
20
72.300000000000026
30
0
40
2.0000000000000107
100
AcDbArc
50
180
51
269.9999999999996
0
LINE
5
142
100
AcDbEntity
8
0
100
AcDbLine
10
44.499999999999993
20
20.300000000000008
30
0
11
62
21
20.300000000000004
31
0
0
CIRCLE
5
143
100
AcDbEntity
8
0
100
AcDbCircle
10
61.5
20
91.799999999999997
30
0
40
1.375
0
CIRCLE
5
144
100
AcDbEntity
8
0
100
AcDbCircle
10
61.5
20
66.799999999999997
30
0
40
1.375
0
CIRCLE
5
145
100
AcDbEntity
8
0
100
AcDbCircle
10
83.200000000000003
20
76.649999999999977
30
0
40
1.375
0
LINE
5
146
100
AcDbEntity
8
0
100
AcDbLine
10
77.700000000000003
20
57.649999999999977
30
0
11
77.700000000000003
21
57.649999999999977
31
0
0
LINE
5
147
100
AcDbEntity
8
0
100
AcDbLine
10
79.700000000000003
20
77.149999999999991
30
0
11
79.700000000000017
21
59.649999999999977
31
0
0
LINE
5
148
100
AcDbEntity
8
0
100
AcDbLine
10
64.999999999999986
20
66.150000000000006
30
0
11
65
21
67.300000000000011
31
0
0
LINE
5
149
100
AcDbEntity
8
0
100
AcDbLine
10
75.700000000000017
20
62.149999999999999
30
0
11
75.699999999999989
21
59.649999999999977
31
0
0
LINE
5
150
100
AcDbEntity
8
0
100
AcDbLine
10
73.700000000000003
20
64.150000000000006
30
0
11
67
21
64.150000000000006
31
0
0
LINE
5
151
100
AcDbEntity
8
0
100
AcDbLine
10
97.000000000000014
20
80.149999999999991
30
0
11
82.700000000000017
21
80.149999999999991
31
0
0
LINE
5
152
100
AcDbEntity
8
0
100
AcDbLine
10
65
20
78
30
0
11
65
21
92.300000000000011
31
0
0
ARC
5
153
100
AcDbEntity
8
0
100
AcDbCircle
10
44.500000000000014
20
22.300000000000018
30
0
40
2.0000000000000107
100
AcDbArc
50
180
51
269.99999999999937
0
LINE
5
154
100
AcDbEntity
8
0
100
AcDbLine
10
75.700000000000003
20
35.649999999999977
30
0
11
75.700000000000003
21
33.149999999999999
31
0
0
ARC
5
155
100
AcDbEntity
8
0
100
AcDbCircle
10
97.000000000000014
20
77.149999999999977
30
0
40
3.0000000000000071
100
AcDbArc
50
0
51
90
0
ARC
5
156
100
AcDbEntity
8
0
100
AcDbCircle
10
67.000000000000014
20
66.15000000000002
30
0
40
2.0000000000000195
100
AcDbArc
50
180
51
269.9999999999996
0
LINE
5
157
100
AcDbEntity
8
0
100
AcDbLine
10
97
20
15.149999999999979
30
0
11
82.699999999999989
21
15.149999999999984
31
0
0
LINE
5
158
100
AcDbEntity
8
0
100
AcDbLine
10
62
20
95.300000000000011
30
0
11
100.00000000000001
21
95.300000000000011
31
0
0
LINE
5
159
100
AcDbEntity
8
0
100
AcDbLine
10
100.00000000000001
20
95.300000000000011
30
0
11
100.00000000000001
21
77.149999999999977
31
0
0
LINE
5
160
100
AcDbEntity
8
0
100
AcDbLine
10
0
20
3.0000000000000009
30
0
11
0
21
0
31
0
0
LINE
5
161
100
AcDbEntity
8
0
100
AcDbLine
10
3.0000000000000004
20
0
30
0
11
0
21
0
31
0
0
LINE
5
162
100
AcDbEntity
8
0
100
AcDbLine
10
62
20
0
30
0
11
100
21
0
31
0
0
LINE
5
163
100
AcDbEntity
8
0
100
AcDbLine
10
100
20
0
30
0
11
100
21
18.149999999999981
31
0
0
ENDSEC
0
SECTION
2
OBJECTS
0
DICTIONARY
5
C
100
AcDbDictionary
3
ACAD_GROUP
350
D
3
ACAD_MLINESTYLE
350
17
0
DICTIONARY
5
D
100
AcDbDictionary
0
DICTIONARY
5
1A
330
C
100
AcDbDictionary
0
DICTIONARY
5
17
100
AcDbDictionary
0
ENDSEC
0
EOF
