0
SECTION
2
HEADER
9
$INSUNITS
70
4
9
$ACADVER
1
AC1014
9
$HANDSEED
5
FFFF
0
ENDSEC
0
SECTION
2
TABLES
0
TABLE
2
VPORT
5
8
100
AcDbSymbolTable
0
ENDTAB
0
TABLE
2
LTYPE
5
5
100
AcDbSymbolTable
0
LTYPE
5
14
100
AcDbSymbolTableRecord
100
AcDbLinetypeTableRecord
2
BYBLOCK
70
0
0
LTYPE
5
15
100
AcDbSymbolTableRecord
100
AcDbLinetypeTableRecord
2
BYLAYER
70
0
0
ENDTAB
0
TABLE
2
LAYER
5
2
100
AcDbSymbolTable
70
2
0
LAYER
5
50
100
AcDbSymbolTableRecord
100
AcDbLayerTableRecord
2
0
70
0
6
CONTINUOUS
0
ENDTAB
0
TABLE
2
STYLE
5
3
100
AcDbSymbolTable
70
1
0
STYLE
5
11
100
AcDbSymbolTableRecord
100
AcDbTextStyleTableRecord
2
STANDARD
70
0
0
ENDTAB
0
TABLE
2
VIEW
5
6
100
AcDbSymbolTable
70
0
0
ENDTAB
0
TABLE
2
UCS
5
7
100
AcDbSymbolTable
70
0
0
ENDTAB
0
TABLE
2
APPID
5
9
100
AcDbSymbolTable
70
2
0
APPID
5
12
100
AcDbSymbolTableRecord
100
AcDbRegAppTableRecord
2
ACAD
70
0
0
ENDTAB
0
TABLE
2
DIMSTYLE
5
A
100
AcDbSymbolTable
70
1
0
ENDTAB
0
TABLE
2
BLOCK_RECORD
5
1
100
AcDbSymbolTable
70
1
0
BLOCK_RECORD
5
1F
100
AcDbSymbolTableRecord
100
AcDbBlockTableRecord
2
*MODEL_SPACE
0
BLOCK_RECORD
5
1B
100
AcDbSymbolTableRecord
100
AcDbBlockTableRecord
2
*PAPER_SPACE
0
ENDTAB
0
ENDSEC
0
SECTION
2
BLOCKS
0
BLOCK
5
20
100
AcDbEntity
100
AcDbBlockBegin
2
*MODEL_SPACE
0
ENDBLK
5
21
100
AcDbEntity
100
AcDbBlockEnd
0
BLOCK
5
1C
100
AcDbEntity
100
AcDbBlockBegin
2
*PAPER_SPACE
0
ENDBLK
5
1D
100
AcDbEntity
100
AcDbBlockEnd
0
ENDSEC
0
SECTION
2
ENTITIES
0
CIRCLE
5
100
100
AcDbEntity
8
0
100
AcDbCircle
10
83.200000000000003
20
76.649999999999977
30
0
40
1.375
0
LWPOLYLINE
5
101
100
AcDbEntity
8
0
100
AcDbPolyline
90
72
70
1
43
0.0
10
62
20
20.300000000000004
42
-0.41421356237309509
10
65
20
17.300000000000001
10
65
20
3.0000000000000004
42
-0.41421356237309509
10
62
20
0
10
3.0000000000000009
20
0
42
-0.41421356237309515
10
0
20
3.0000000000000004
10
0
20
17.300000000000001
42
-0.41421356237309481
10
2.9999999999999982
20
20.300000000000004
10
20.5
20
20.300000000000004
42
0.4142135623730937
10
22.5
20
22.300000000000004
10
22.5
20
23
42
0.4142135623730937
10
20.5
20
25
10
3.0000000000000009
20
25
42
-0.41421356237309548
10
0
20
28.000000000000004
10
2.2204460492503131e-15
20
42.300000000000004
42
-0.41421356237309481
10
2.9999999999999982
20
45.300000000000004
10
20.5
20
45.300000000000011
42
0.41421356237309176
10
22.5
20
47.300000000000011
10
22.5
20
48
42
0.41421356237309176
10
20.5
20
50
10
3.0000000000000004
20
50
42
-0.41421356237309509
10
0
20
53
10
2.2204460492503131e-15
20
67.300000000000011
42
-0.41421356237309481
10
2.9999999999999982
20
70.299999999999997
10
20.5
20
70.299999999999997
42
0.41421356237309243
10
22.5
20
72.300000000000011
10
22.5
20
73
42
0.41421356237309176
10
20.5
20
75
10
3.0000000000000004
20
75
42
-0.41421356237309509
10
0
20
78
10
-6.6613381477509392e-15
20
92.300000000000011
42
-0.41421356237309481
10
2.9999999999999982
20
95.300000000000011
10
62
20
95.300000000000011
42
-0.41421356237309509
10
65
20
92.300000000000011
10
65
20
78
42
-0.41421356237309509
10
62
20
75
10
44.5
20
75
42
0.41421356237308982
10
42.5
20
73
10
42.5
20
72.300000000000011
42
0.41421356237309109
10
44.5
20
70.300000000000011
10
62
20
70.299999999999997
42
-0.41421356237309509
10
65
20
67.300000000000011
10
64.999999999999986
20
66.150000000000006
42
0.41421356237309109
10
67
20
64.150000000000006
10
73.700000000000003
20
64.150000000000006
42
-0.41421356237309109
10
75.700000000000017
20
62.149999999999999
10
75.699999999999989
20
59.649999999999977
42
0.41421356237309109
10
77.700000000000003
20
57.649999999999977
10
79.700000000000017
20
59.649999999999977
42
-0.41421356237309109
10
79.700000000000003
20
77.149999999999991
10
82.700000000000017
20
80.149999999999991
42
0.41421356237309331
10
97.000000000000014
20
80.149999999999991
10
100.00000000000001
20
77.149999999999977
42
0.41421356237309509
10
100
20
18.149999999999977
10
97
20
15.149999999999979
42
0.41421356237309509
10
82.699999999999989
20
15.149999999999984
10
79.700000000000003
20
18.149999999999981
42
0.41421356237309453
10
79.700000000000003
20
35.649999999999977
10
77.699999999999989
20
37.649999999999977
42
-0.41421356237309243
10
77.700001
20
37.649999999999977
10
77.699999999999989
20
37.649999999999977
42
0.41421356237309048
10
75.700000000000003
20
35.649999999999977
10
75.700000000000003
20
33.149999999999999
42
-0.41421356237309176
10
73.700000000000003
20
31.150000000000002
10
67
20
31.150000000000002
42
0.41421356237309176
10
65
20
29.149999999999999
10
65
20
28
42
-0.41421356237309509
10
62
20
25
10
44.499999999999993
20
24.999999999999996
42
0.41421356237309048
10
42.5
20
23
10
42.5
20
22.300000000000004
42
0.41421356237309048
10
44.499999999999993
20
20.300000000000008
0
CIRCLE
5
102
100
AcDbEntity
8
0
100
AcDbCircle
10
61.5
20
16.800000000000001
30
0
40
1.375
0
CIRCLE
5
103
100
AcDbEntity
8
0
100
AcDbCircle
10
83.200000000000003
20
18.649999999999981
30
0
40
1.375
0
CIRCLE
5
104
100
AcDbEntity
8
0
100
AcDbCircle
10
61.5
20
66.799999999999997
30
0
40
1.375
0
LWPOLYLINE
5
105
100
AcDbEntity
8
0
100
AcDbPolyline
90
16
70
1
43
0.0
10
65
20
53
42
-0.41421356237309509
10
62
20
50
10
44.5
20
50
42
0.41421356237308982
10
42.5
20
48
10
42.5
20
47.300000000000011
42
0.41421356237308982
10
44.5
20
45.300000000000011
10
62
20
45.300000000000004
42
-0.41421356237309509
10
65
20
42.300000000000004
10
65
20
41.150000000000006
42
0.41421356237309243
10
67
20
39.149999999999999
10
67.363907049409562
20
39.149999999999999
42
0.41421356237309243
10
69.363907049409562
20
41.150000000000006
10
69.363907049409562
20
54.149999999999999
42
0.41421356237308982
10
67.363907049409562
20
56.150000000000006
10
67
20
56.150000000000006
42
0.41421356237308982
10
65
20
54.149999999999999
0
CIRCLE
5
106
100
AcDbEntity
8
0
100
AcDbCircle
10
61.5
20
41.799999999999997
30
0
40
1.375
0
CIRCLE
5
107
100
AcDbEntity
8
0
100
AcDbCircle
10
61.5
20
91.799999999999997
30
0
40
1.375
0
CIRCLE
5
108
100
AcDbEntity
8
0
100
AcDbCircle
10
3.5000000000000004
20
16.800000000000001
30
0
40
1.375
0
CIRCLE
5
109
100
AcDbEntity
8
0
100
AcDbCircle
10
3.5000000000000004
20
41.799999999999997
30
0
40
1.375
0
CIRCLE
5
110
100
AcDbEntity
8
0
100
AcDbCircle
10
3.5000000000000004
20
91.799999999999997
30
0
40
1.375
0
CIRCLE
5
111
100
AcDbEntity
8
0
100
AcDbCircle
10
3.5000000000000004
20
66.799999999999997
30
0
40
1.375
0
ENDSEC
0
SECTION
2
OBJECTS
0
DICTIONARY
5
C
100
AcDbDictionary
3
ACAD_GROUP
350
D
3
ACAD_MLINESTYLE
350
17
0
DICTIONARY
5
D
100
AcDbDictionary
0
DICTIONARY
5
1A
330
C
100
AcDbDictionary
0
DICTIONARY
5
17
100
AcDbDictionary
0
ENDSEC
0
EOF
