0
SECTION
2
HEADER
9
$INSUNITS
70
4
9
$ACADVER
1
AC1014
9
$HANDSEED
5
FFFF
0
ENDSEC
0
SECTION
2
TABLES
0
TABLE
2
VPORT
5
8
100
AcDbSymbolTable
0
ENDTAB
0
TABLE
2
LTYPE
5
5
100
AcDbSymbolTable
0
LTYPE
5
14
100
AcDbSymbolTableRecord
100
AcDbLinetypeTableRecord
2
BYBLOCK
70
0
0
LTYPE
5
15
100
AcDbSymbolTableRecord
100
AcDbLinetypeTableRecord
2
BYLAYER
70
0
0
ENDTAB
0
TABLE
2
LAYER
5
2
100
AcDbSymbolTable
70
2
0
LAYER
5
50
100
AcDbSymbolTableRecord
100
AcDbLayerTableRecord
2
0
70
0
6
CONTINUOUS
0
ENDTAB
0
TABLE
2
STYLE
5
3
100
AcDbSymbolTable
70
1
0
STYLE
5
11
100
AcDbSymbolTableRecord
100
AcDbTextStyleTableRecord
2
STANDARD
70
0
0
ENDTAB
0
TABLE
2
VIEW
5
6
100
AcDbSymbolTable
70
0
0
ENDTAB
0
TABLE
2
UCS
5
7
100
AcDbSymbolTable
70
0
0
ENDTAB
0
TABLE
2
APPID
5
9
100
AcDbSymbolTable
70
2
0
APPID
5
12
100
AcDbSymbolTableRecord
100
AcDbRegAppTableRecord
2
ACAD
70
0
0
ENDTAB
0
TABLE
2
DIMSTYLE
5
A
100
AcDbSymbolTable
70
1
0
ENDTAB
0
TABLE
2
BLOCK_RECORD
5
1
100
AcDbSymbolTable
70
1
0
BLOCK_RECORD
5
1F
100
AcDbSymbolTableRecord
100
AcDbBlockTableRecord
2
*MODEL_SPACE
0
BLOCK_RECORD
5
1B
100
AcDbSymbolTableRecord
100
AcDbBlockTableRecord
2
*PAPER_SPACE
0
ENDTAB
0
ENDSEC
0
SECTION
2
BLOCKS
0
BLOCK
5
20
100
AcDbEntity
100
AcDbBlockBegin
2
*MODEL_SPACE
0
ENDBLK
5
21
100
AcDbEntity
100
AcDbBlockEnd
0
BLOCK
5
1C
100
AcDbEntity
100
AcDbBlockBegin
2
*PAPER_SPACE
0
ENDBLK
5
1D
100
AcDbEntity
100
AcDbBlockEnd
0
ENDSEC
0
SECTION
2
ENTITIES
0
ARC
5
100
100
AcDbEntity
8
0
100
AcDbCircle
10
96.749948677481797
20
17.877116866032239
30
0
40
3.0000000000000027
100
AcDbArc
50
-85.000000000000213
51
4.9999999999999183
0
ARC
5
101
100
AcDbEntity
8
0
100
AcDbCircle
10
91.607759855369977
20
76.652604053445216
30
0
40
3.0000000000000027
100
AcDbArc
50
4.9999999999997007
51
95.000000000000043
0
LINE
5
102
100
AcDbEntity
8
0
100
AcDbLine
10
65
20
28
30
0
11
65
21
42.300000000000004
31
0
0
LINE
5
103
100
AcDbEntity
8
0
100
AcDbLine
10
86.128734189206853
20
80.188530770661799
30
0
11
86.081179720789066
21
80.732080831907155
31
0
0
CIRCLE
5
104
100
AcDbEntity
8
0
100
AcDbCircle
10
61.5
20
16.800000000000001
30
0
40
1.375
0
ARC
5
105
100
AcDbEntity
8
0
100
AcDbCircle
10
62
20
92.300000000000011
30
0
40
2.9999999999999982
100
AcDbArc
50
0
51
90
0
ARC
5
106
100
AcDbEntity
8
0
100
AcDbCircle
10
82.504364494769817
20
16.630789744740731
30
0
40
2.9999999999999942
100
AcDbArc
50
185
51
275.00000000000006
0
LINE
5
107
100
AcDbEntity
8
0
100
AcDbLine
10
65
20
53
30
0
11
65
21
67.300000000000011
31
0
0
CIRCLE
5
108
100
AcDbEntity
8
0
100
AcDbCircle
10
82.958883972441868
20
17.172464965160433
30
0
40
1.375
0
ARC
5
109
100
AcDbEntity
8
0
100
AcDbCircle
10
62
20
42.300000000000004
30
0
40
2.9999999999999982
100
AcDbArc
50
0
51
90
0
CIRCLE
5
110
100
AcDbEntity
8
0
100
AcDbCircle
10
61.5
20
66.799999999999997
30
0
40
1.375
0
ARC
5
111
100
AcDbEntity
8
0
100
AcDbCircle
10
62
20
3.0000000000000004
30
0
40
3.0000000000000004
100
AcDbArc
50
-90
51
0
0
ARC
5
112
100
AcDbEntity
8
0
100
AcDbCircle
10
62
20
53
30
0
40
2.9999999999999982
100
AcDbArc
50
-90
51
0
0
LINE
5
113
100
AcDbEntity
8
0
100
AcDbLine
10
65
20
3.0000000000000004
30
0
11
65
21
17.300000000000001
31
0
0
ARC
5
114
100
AcDbEntity
8
0
100
AcDbCircle
10
77.362175672657997
20
75.406276932153716
30
0
40
3.0000000000000204
100
AcDbArc
50
94.999999999999773
51
185.00000000000006
0
ARC
5
115
100
AcDbEntity
8
0
100
AcDbCircle
10
62
20
17.300000000000001
30
0
40
2.9999999999999982
100
AcDbArc
50
0
51
90
0
ARC
5
116
100
AcDbEntity
8
0
100
AcDbCircle
10
62
20
67.300000000000011
30
0
40
2.9999999999999982
100
AcDbArc
50
0
51
90
0
ARC
5
117
100
AcDbEntity
8
0
100
AcDbCircle
10
62
20
78
30
0
40
2.9999999999999982
100
AcDbArc
50
-90
51
0
0
LINE
5
118
100
AcDbEntity
8
0
100
AcDbLine
10
82.113013274937487
20
80.193577871373833
30
0
11
82.143955396839885
21
79.839907799671167
31
0
0
ARC
5
119
100
AcDbEntity
8
0
100
AcDbCircle
10
83.68702220212036
20
85.150000000000006
30
0
40
4.4999999999999964
100
AcDbArc
50
-51.944268849145971
51
89.999999999999815
0
LINE
5
120
100
AcDbEntity
8
0
100
AcDbLine
10
66
20
87.150000000000006
30
0
11
66
21
87.150000000000006
31
0
0
LINE
5
121
100
AcDbEntity
8
0
100
AcDbLine
10
67
20
82.15000000000002
30
0
11
67
21
81.650000000000006
31
0
0
LINE
5
122
100
AcDbEntity
8
0
100
AcDbLine
10
68
20
89.650000000000006
30
0
11
83.687022202120374
21
89.650000000000006
31
0
0
LINE
5
123
100
AcDbEntity
8
0
100
AcDbLine
10
68
20
80.650000000000006
30
0
11
81.614915925891609
21
80.650000000000006
31
0
0
CIRCLE
5
124
100
AcDbEntity
8
0
100
AcDbCircle
10
77.903850893077703
20
74.95175745448168
30
0
40
1.375
0
ARC
5
125
100
AcDbEntity
8
0
100
AcDbCircle
10
3.0000000000000004
20
53
30
0
40
3.0000000000000004
100
AcDbArc
50
180
51
270
0
LINE
5
126
100
AcDbEntity
8
0
100
AcDbLine
10
30.5
20
21.300000000000004
30
0
11
30.5
21
24
31
0
0
ARC
5
127
100
AcDbEntity
8
0
100
AcDbCircle
10
3.0000000000000004
20
78
30
0
40
3.0000000000000004
100
AcDbArc
50
180
51
270
0
CIRCLE
5
128
100
AcDbEntity
8
0
100
AcDbCircle
10
61.5
20
41.799999999999997
30
0
40
1.375
0
ARC
5
129
100
AcDbEntity
8
0
100
AcDbCircle
10
62
20
28
30
0
40
2.9999999999999982
100
AcDbArc
50
-90
51
0
0
CIRCLE
5
130
100
AcDbEntity
8
0
100
AcDbCircle
10
3.5000000000000004
20
66.799999999999997
30
0
40
1.375
0
LINE
5
131
100
AcDbEntity
8
0
100
AcDbLine
10
34.5
20
71.300000000000011
30
0
11
34.5
21
74
31
0
0
LINE
5
132
100
AcDbEntity
8
0
100
AcDbLine
10
0
20
28.000000000000004
30
0
11
0
21
42.300000000000004
31
0
0
ARC
5
133
100
AcDbEntity
8
0
100
AcDbCircle
10
3.0000000000000004
20
67.300000000000011
30
0
40
2.9999999999999982
100
AcDbArc
50
90.000000000000043
51
180
0
LINE
5
134
100
AcDbEntity
8
0
100
AcDbLine
10
34.5
20
46.299999999999997
30
0
11
34.5
21
49
31
0
0
CIRCLE
5
135
100
AcDbEntity
8
0
100
AcDbCircle
10
61.5
20
91.799999999999997
30
0
40
1.375
0
LINE
5
136
100
AcDbEntity
8
0
100
AcDbLine
10
66
20
83.150000000000006
30
0
11
66
21
83.150000000000006
31
0
0
LINE
5
137
100
AcDbEntity
8
0
100
AcDbLine
10
67
20
88.650000000000006
30
0
11
67
21
88.149999999999991
31
0
0
LINE
5
138
100
AcDbEntity
8
0
100
AcDbLine
10
97.01141590572476
20
14.888532771756999
30
0
11
82.765831723012795
21
13.642205650465495
31
0
0
CIRCLE
5
139
100
AcDbEntity
8
0
100
AcDbCircle
10
3.5000000000000004
20
91.799999999999997
30
0
40
1.375
0
LINE
5
140
100
AcDbEntity
8
0
100
AcDbLine
10
34.5
20
21.300000000000004
30
0
11
34.5
21
24
31
0
0
LINE
5
141
100
AcDbEntity
8
0
100
AcDbLine
10
0
20
78
30
0
11
0
21
92.300000000000011
31
0
0
LINE
5
142
100
AcDbEntity
8
0
100
AcDbLine
10
62
20
95.300000000000011
30
0
11
2.9999999999999982
21
95.300000000000011
31
0
0
LINE
5
143
100
AcDbEntity
8
0
100
AcDbLine
10
3.0000000000000004
20
0
30
0
11
62
21
0
31
0
0
LINE
5
144
100
AcDbEntity
8
0
100
AcDbLine
10
99.738532771757036
20
18.138584094275213
30
0
11
94.596343949645217
21
76.91407128168818
31
0
0
LINE
5
145
100
AcDbEntity
8
0
100
AcDbLine
10
74.373591578382758
20
75.144809703910738
30
0
11
79.515780400494592
21
16.369322516497753
31
0
0
LINE
5
146
100
AcDbEntity
8
0
100
AcDbLine
10
0
20
53
30
0
11
0
21
67.300000000000011
31
0
0
ARC
5
147
100
AcDbEntity
8
0
100
AcDbCircle
10
3.0000000000000004
20
3.0000000000000004
30
0
40
3.0000000000000004
100
AcDbArc
50
180
51
270
0
ARC
5
148
100
AcDbEntity
8
0
100
AcDbCircle
10
3.0000000000000004
20
17.300000000000001
30
0
40
3.0000000000000004
100
AcDbArc
50
90.000000000000043
51
180
0
LINE
5
149
100
AcDbEntity
8
0
100
AcDbLine
10
30.5
20
46.299999999999997
30
0
11
30.5
21
49
31
0
0
ARC
5
150
100
AcDbEntity
8
0
100
AcDbCircle
10
3.0000000000000004
20
92.300000000000011
30
0
40
3.0000000000000071
100
AcDbArc
50
90.000000000000043
51
180
0
LINE
5
151
100
AcDbEntity
8
0
100
AcDbLine
10
30.5
20
71.300000000000011
30
0
11
30.5
21
74
31
0
0
CIRCLE
5
152
100
AcDbEntity
8
0
100
AcDbCircle
10
3.5000000000000004
20
16.800000000000001
30
0
40
1.375
0
ARC
5
153
100
AcDbEntity
8
0
100
AcDbCircle
10
3.0000000000000004
20
42.300000000000004
30
0
40
2.9999999999999982
100
AcDbArc
50
90.000000000000043
51
180
0
CIRCLE
5
154
100
AcDbEntity
8
0
100
AcDbCircle
10
3.5000000000000004
20
41.799999999999997
30
0
40
1.375
0
ARC
5
155
100
AcDbEntity
8
0
100
AcDbCircle
10
3.0000000000000004
20
28
30
0
40
3.0000000000000004
100
AcDbArc
50
180
51
270
0
LINE
5
156
100
AcDbEntity
8
0
100
AcDbLine
10
0
20
3.0000000000000009
30
0
11
0
21
17.300000000000001
31
0
0
LINE
5
157
100
AcDbEntity
8
0
100
AcDbLine
10
77.100708444415034
20
78.39486102642897
30
0
11
81.234916441495784
21
78.75655735883177
31
0
0
LINE
5
158
100
AcDbEntity
8
0
100
AcDbLine
10
87.212084630046235
20
79.279491815317698
30
0
11
91.346292627126999
21
79.64118814772047
31
0
0
LINE
5
159
100
AcDbEntity
8
0
100
AcDbLine
10
65
20
92.300000000000011
30
0
11
65
21
88.149999999999991
31
0
0
LINE
5
160
100
AcDbEntity
8
0
100
AcDbLine
10
65
20
82.15000000000002
30
0
11
65
21
78
31
0
0
LINE
5
161
100
AcDbEntity
8
0
100
AcDbLine
10
35.5
20
75
30
0
11
62
21
75
31
0
0
LINE
5
162
100
AcDbEntity
8
0
100
AcDbLine
10
35.5
20
70.299999999999997
30
0
11
62
21
70.299999999999997
31
0
0
LINE
5
163
100
AcDbEntity
8
0
100
AcDbLine
10
29.499999999999996
20
75
30
0
11
3.0000000000000004
21
75
31
0
0
LINE
5
164
100
AcDbEntity
8
0
100
AcDbLine
10
2.9999999999999982
20
70.299999999999997
30
0
11
29.499999999999996
21
70.299999999999997
31
0
0
LINE
5
165
100
AcDbEntity
8
0
100
AcDbLine
10
3.0000000000000004
20
50
30
0
11
29.499999999999993
21
50
31
0
0
LINE
5
166
100
AcDbEntity
8
0
100
AcDbLine
10
35.5
20
50
30
0
11
62
21
50
31
0
0
LINE
5
167
100
AcDbEntity
8
0
100
AcDbLine
10
29.499999999999996
20
45.299999999999997
30
0
11
2.9999999999999982
21
45.300000000000004
31
0
0
LINE
5
168
100
AcDbEntity
8
0
100
AcDbLine
10
35.5
20
45.299999999999997
30
0
11
62
21
45.300000000000004
31
0
0
LINE
5
169
100
AcDbEntity
8
0
100
AcDbLine
10
3.0000000000000004
20
25
30
0
11
29.499999999999993
21
25.000000000000004
31
0
0
LINE
5
170
100
AcDbEntity
8
0
100
AcDbLine
10
35.5
20
25
30
0
11
62
21
25
31
0
0
LINE
5
171
100
AcDbEntity
8
0
100
AcDbLine
10
62
20
20.300000000000004
30
0
11
35.5
21
20.300000000000004
31
0
0
LINE
5
172
100
AcDbEntity
8
0
100
AcDbLine
10
29.499999999999996
20
20.300000000000004
30
0
11
2.9999999999999982
21
20.300000000000004
31
0
0
ARC
5
173
100
AcDbEntity
8
0
100
AcDbCircle
10
29.500000000000007
20
74.000000000000014
30
0
40
0.99999999999999201
100
AcDbArc
50
0
51
90.000000000000611
0
ARC
5
174
100
AcDbEntity
8
0
100
AcDbCircle
10
35.499999999999993
20
74.000000000000014
30
0
40
0.99999999999998757
100
AcDbArc
50
89.999999999999588
51
180
0
ARC
5
175
100
AcDbEntity
8
0
100
AcDbCircle
10
35.500000000000021
20
71.300000000000011
30
0
40
1.0000000000000187
100
AcDbArc
50
180
51
269.99999999999881
0
ARC
5
176
100
AcDbEntity
8
0
100
AcDbCircle
10
29.499999999999979
20
71.300000000000011
30
0
40
1.0000000000000231
100
AcDbArc
50
-89.999999999998991
51
0
0
ARC
5
177
100
AcDbEntity
8
0
100
AcDbCircle
10
29.500000000000007
20
49
30
0
40
0.99999999999999201
100
AcDbArc
50
0
51
90.00000000000081
0
ARC
5
178
100
AcDbEntity
8
0
100
AcDbCircle
10
35.499999999999993
20
49.000000000000014
30
0
40
0.99999999999998757
100
AcDbArc
50
89.999999999999588
51
180
0
ARC
5
179
100
AcDbEntity
8
0
100
AcDbCircle
10
29.500000000000007
20
46.29999999999999
30
0
40
0.99999999999999645
100
AcDbArc
50
-90.000000000000611
51
0
0
ARC
5
180
100
AcDbEntity
8
0
100
AcDbCircle
10
35.499999999999993
20
46.29999999999999
30
0
40
0.99999999999999201
100
AcDbArc
50
180
51
270.0000000000004
0
ARC
5
181
100
AcDbEntity
8
0
100
AcDbCircle
10
29.499999999999986
20
23.999999999999989
30
0
40
1.0000000000000142
100
AcDbArc
50
0
51
89.999999999999588
0
ARC
5
182
100
AcDbEntity
8
0
100
AcDbCircle
10
35.500000000000014
20
23.999999999999989
30
0
40
1.0000000000000098
100
AcDbArc
50
90.00000000000081
51
180
0
ARC
5
183
100
AcDbEntity
8
0
100
AcDbCircle
10
29.499999999999989
20
21.300000000000011
30
0
40
1.0000000000000098
100
AcDbArc
50
270.0000000000004
51
360
0
ARC
5
184
100
AcDbEntity
8
0
100
AcDbCircle
10
35.500000000000014
20
21.300000000000011
30
0
40
1.0000000000000098
100
AcDbArc
50
180
51
269.9999999999992
0
ARC
5
185
100
AcDbEntity
8
0
100
AcDbCircle
10
66
20
88.149999999999991
30
0
40
0.99999999999999645
100
AcDbArc
50
180
51
270
0
ARC
5
186
100
AcDbEntity
8
0
100
AcDbCircle
10
66
20
88.149999999999991
30
0
40
0.99999999999999645
100
AcDbArc
50
-90
51
0
0
ARC
5
187
100
AcDbEntity
8
0
100
AcDbCircle
10
66
20
82.15000000000002
30
0
40
0.99999999999999645
100
AcDbArc
50
90
51
180
0
ARC
5
188
100
AcDbEntity
8
0
100
AcDbCircle
10
66
20
82.15000000000002
30
0
40
0.99999999999999645
100
AcDbArc
50
0
51
90
0
ARC
5
189
100
AcDbEntity
8
0
100
AcDbCircle
10
81.147760698748158
20
79.752752056923484
30
0
40
0.99999999999996769
100
AcDbArc
50
-85.000000000001634
51
5.0000000000014513
0
ARC
5
190
100
AcDbEntity
8
0
100
AcDbCircle
10
87.12492888729858
20
80.275686513409426
30
0
40
0.99999999999998701
100
AcDbArc
50
184.99999999999818
51
274.99999999999989
0
ARC
5
191
100
AcDbEntity
8
0
100
AcDbCircle
10
87.077374418880837
20
80.819236574654809
30
0
40
1.0000000000000315
100
AcDbArc
50
128.05573115085477
51
184.99999999999963
0
ARC
5
192
100
AcDbEntity
8
0
100
AcDbCircle
10
81.614915925891609
20
80.15000000000002
30
0
40
0.49999999999999351
100
AcDbArc
50
4.999999999998094
51
90
0
ARC
5
193
100
AcDbEntity
8
0
100
AcDbCircle
10
68
20
81.650000000000006
30
0
40
0.99999999999999645
100
AcDbArc
50
180
51
270
0
ARC
5
194
100
AcDbEntity
8
0
100
AcDbCircle
10
68
20
88.650000000000006
30
0
40
0.99999999999999645
100
AcDbArc
50
90
51
180
0
ENDSEC
0
SECTION
2
OBJECTS
0
DICTIONARY
5
C
100
AcDbDictionary
3
ACAD_GROUP
350
D
3
ACAD_MLINESTYLE
350
17
0
DICTIONARY
5
D
100
AcDbDictionary
0
DICTIONARY
5
1A
330
C
100
AcDbDictionary
0
DICTIONARY
5
17
100
AcDbDictionary
0
ENDSEC
0
EOF
